<svg width="97" height="25" viewBox="0 0 97 25" fill="none" xmlns="http://www.w3.org/2000/svg">
<path fill-rule="evenodd" clip-rule="evenodd" d="M63.6108 24.1157H66.9629V12.2539H63.6108V24.1157Z" fill="#FEFEFE"/>
<path fill-rule="evenodd" clip-rule="evenodd" d="M13.5354 6.75054H16.9086V8.54242H16.9536C17.3136 7.85323 17.7405 7.33628 18.2352 6.99156C18.7299 6.64684 19.3519 6.47461 20.102 6.47461C20.2963 6.47461 20.4917 6.48264 20.6868 6.49771C20.8812 6.51302 21.0611 6.54365 21.2263 6.58935V9.73726C20.9864 9.66069 20.7498 9.60319 20.5178 9.56478C20.2853 9.52661 20.042 9.50728 19.7871 9.50728C19.1425 9.50728 18.6323 9.59942 18.2578 9.78296C17.8828 9.96699 17.5945 10.2236 17.3923 10.5527C17.1895 10.8821 17.0583 11.2763 16.9983 11.7358C16.9386 12.1955 16.9086 12.7009 16.9086 13.2522V17.9161H13.5354V6.75054Z" fill="#FEFEFE"/>
<path fill-rule="evenodd" clip-rule="evenodd" d="M29.3486 11.0686C29.3631 10.4869 29.1758 9.98898 28.7863 9.57522C28.396 9.16196 27.8942 8.95508 27.2793 8.95508C26.9048 8.95508 26.5747 9.01659 26.2901 9.13886C26.0053 9.26163 25.7615 9.41855 25.5595 9.60987C25.3568 9.80169 25.1995 10.0234 25.0869 10.2762C24.9746 10.5288 24.9102 10.7929 24.8957 11.0686H29.3486ZM32.2044 15.9861C31.6645 16.6909 30.982 17.2347 30.1578 17.6173C29.333 18 28.4788 18.1915 27.5943 18.1915C26.7546 18.1915 25.9637 18.0537 25.222 17.7783C24.4799 17.5024 23.835 17.1082 23.2877 16.595C22.7402 16.0818 22.3096 15.4657 21.9946 14.7454C21.68 14.0258 21.5227 13.2216 21.5227 12.3331C21.5227 11.4453 21.68 10.6411 21.9946 9.92079C22.3096 9.20123 22.7402 8.58485 23.2877 8.07141C23.835 7.55848 24.4799 7.1638 25.222 6.88837C25.9637 6.6127 26.7546 6.47461 27.5943 6.47461C28.3738 6.47461 29.0821 6.6127 29.7196 6.88837C30.3566 7.1638 30.896 7.55848 31.3386 8.07141C31.7807 8.58485 32.1218 9.20123 32.3617 9.92079C32.6015 10.6411 32.7217 11.4453 32.7217 12.3331V13.4129H24.8957C25.0304 14.0717 25.3228 14.5962 25.7725 14.9869C26.2223 15.3773 26.7769 15.5726 27.437 15.5726C27.9917 15.5726 28.4601 15.4463 28.8422 15.1935C29.2246 14.9409 29.5579 14.6155 29.8432 14.2171L32.2044 15.9861Z" fill="#FEFEFE"/>
<path fill-rule="evenodd" clip-rule="evenodd" d="M8.79126 12.4106H12.1433V0.548828H8.79126V12.4106Z" fill="#FEFEFE"/>
<path fill-rule="evenodd" clip-rule="evenodd" d="M39.6571 13.0234C39.4018 13.0234 39.0835 13.035 38.7011 13.0578C38.319 13.0809 37.9514 13.1462 37.5994 13.2532C37.2468 13.3606 36.947 13.5213 36.7 13.7357C36.4523 13.9501 36.3289 14.2489 36.3289 14.6315C36.3289 15.0453 36.5012 15.3519 36.8462 15.5505C37.1907 15.7501 37.5508 15.8492 37.9253 15.8492C38.2549 15.8492 38.5738 15.8035 38.8813 15.7116C39.188 15.6195 39.4622 15.4897 39.7021 15.3207C39.9415 15.1525 40.1329 14.9381 40.2754 14.6777C40.4177 14.4174 40.489 14.1113 40.489 13.7588V13.0234H39.6571ZM40.4888 16.5146H40.444C40.069 17.1119 39.5704 17.541 38.9486 17.8014C38.3259 18.0615 37.6702 18.1918 36.9806 18.1918C36.4709 18.1918 35.9802 18.119 35.5078 17.9736C35.0352 17.8282 34.6192 17.6098 34.2599 17.3188C33.8998 17.0281 33.6145 16.668 33.4051 16.239C33.1948 15.8104 33.0901 15.3125 33.0901 14.7456C33.0901 14.1024 33.2063 13.5588 33.4391 13.1144C33.6711 12.6705 33.9856 12.3029 34.3835 12.012C34.7804 11.721 35.234 11.495 35.7437 11.3338C36.2532 11.1731 36.7818 11.0546 37.3293 10.9778C37.8761 10.9012 38.4234 10.8555 38.9707 10.84C39.518 10.8249 40.0243 10.8169 40.4888 10.8169C40.4888 10.2048 40.2752 9.71818 39.8481 9.35815C39.4205 8.99861 38.9147 8.81835 38.3298 8.81835C37.7754 8.81835 37.2691 8.9371 36.812 9.17411C36.3547 9.41188 35.9465 9.73726 35.5865 10.1508L33.7873 8.267C34.4172 7.6697 35.1515 7.22154 35.9912 6.92302C36.8305 6.62425 37.7002 6.47461 38.5996 6.47461C39.5893 6.47461 40.4025 6.60115 41.04 6.85398C41.677 7.10655 42.1864 7.47814 42.5688 7.96822C42.9515 8.45856 43.2174 9.05937 43.3675 9.77191C43.5172 10.4839 43.5924 11.3072 43.5924 12.2417V17.9161H40.4888V16.5146Z" fill="#FEFEFE"/>
<path fill-rule="evenodd" clip-rule="evenodd" d="M44.8064 6.75054H48.0445V8.26675H48.0894C48.1941 8.05258 48.3443 7.83817 48.5392 7.6235C48.734 7.40909 48.9668 7.21778 49.2364 7.04906C49.5062 6.88059 49.8136 6.74275 50.1587 6.63555C50.5032 6.52859 50.8782 6.47461 51.283 6.47461C52.0475 6.47461 52.7256 6.63555 53.3181 6.95742C53.9101 7.27879 54.3562 7.78444 54.6562 8.47363C55.0457 7.75381 55.5181 7.24087 56.0725 6.93407C56.6272 6.62801 57.3094 6.47461 58.1191 6.47461C58.8537 6.47461 59.4718 6.60115 59.9748 6.85372C60.4767 7.1063 60.8743 7.45102 61.1662 7.88763C61.4587 8.32424 61.6686 8.83743 61.7959 9.42719C61.9234 10.0167 61.9871 10.6484 61.9871 11.3223V17.9161H58.6138V11.4142C58.6138 10.8937 58.5052 10.4455 58.288 10.0702C58.0705 9.69508 57.6844 9.50728 57.13 9.50728C56.7395 9.50728 56.4139 9.57281 56.1519 9.70261C55.8892 9.83292 55.6793 10.0127 55.522 10.2424C55.3647 10.4721 55.2522 10.7405 55.1846 11.0466C55.1173 11.3534 55.0833 11.675 55.0833 12.0117V17.9161H51.7101V12.0117C51.7101 11.8129 51.7025 11.5676 51.6875 11.2763C51.6725 10.9858 51.6204 10.7099 51.53 10.4493C51.4403 10.1889 51.2941 9.96699 51.092 9.78296C50.8893 9.59942 50.5929 9.50728 50.2034 9.50728C49.7682 9.50728 49.4165 9.58788 49.1467 9.74856C48.8766 9.9095 48.6704 10.1242 48.5281 10.3918C48.3856 10.6599 48.2922 10.9625 48.2472 11.2992C48.2017 11.6364 48.1796 11.9886 48.1796 12.3564V17.9161H44.8064V6.75054Z" fill="#FEFEFE"/>
<path fill-rule="evenodd" clip-rule="evenodd" d="M97.0001 9.50675H94.0319V13.2286C94.0319 13.5352 94.0467 13.8144 94.0767 14.0672C94.1066 14.3198 94.1742 14.5382 94.2794 14.7217C94.3841 14.9058 94.5453 15.0474 94.7628 15.1468C94.98 15.2467 95.2688 15.2962 95.6286 15.2962C95.8087 15.2962 96.0446 15.2771 96.3371 15.2389C96.6295 15.2008 96.8507 15.1126 97.0001 14.9746V17.8463C96.6259 17.9844 96.2358 18.076 95.8308 18.1222C95.4261 18.1682 95.0289 18.191 94.6389 18.191C94.069 18.191 93.5443 18.1295 93.0649 18.0072C92.5852 17.8847 92.1652 17.6896 91.8056 17.4212C91.4456 17.1536 91.165 16.8051 90.9622 16.376C90.76 15.9474 90.6587 15.4267 90.6587 14.8139V9.50675H88.5002V6.75H90.6587V3.44141H94.0319V6.75H97.0001V9.50675Z" fill="#FEFEFE"/>
<path fill-rule="evenodd" clip-rule="evenodd" d="M72.3811 12.3339C72.3811 11.4913 72.1451 10.8094 71.6728 10.2889C71.2002 9.76817 70.5372 9.50781 69.6827 9.50781C68.828 9.50781 68.1644 9.76817 67.6923 10.2889C67.22 10.8094 66.9841 11.4913 66.9841 12.3339C66.9841 13.1759 67.22 13.8573 67.6923 14.3783C68.1644 14.899 68.828 15.1594 69.6827 15.1594C70.5372 15.1594 71.2002 14.899 71.6728 14.3783C72.1451 13.8573 72.3811 13.1759 72.3811 12.3339ZM75.7543 12.3331C75.7543 13.2209 75.597 14.025 75.2819 14.7454C74.9671 15.4649 74.5363 16.0813 73.989 16.5947C73.4417 17.1077 72.7971 17.5024 72.055 17.778C71.3128 18.0534 70.5222 18.1915 69.6827 18.1915C68.8429 18.1915 68.0519 18.0534 67.3102 17.778C66.568 17.5024 65.9234 17.1077 65.3761 16.5947C64.8288 16.0813 64.398 15.4649 64.0832 14.7454C63.7681 14.025 63.6108 13.2209 63.6108 12.3331C63.6108 11.4443 63.7681 10.6404 64.0832 9.92079C64.398 9.20047 64.8288 8.5841 65.3761 8.07116C65.9234 7.55798 66.568 7.1638 67.3102 6.88812C68.0519 6.6122 68.8429 6.47461 69.6827 6.47461C70.5222 6.47461 71.3128 6.6122 72.055 6.88812C72.7971 7.1638 73.4417 7.55798 73.989 8.07116C74.5363 8.5841 74.9671 9.20047 75.2819 9.92079C75.597 10.6404 75.7543 11.4443 75.7543 12.3331Z" fill="#FFD01A"/>
<path fill-rule="evenodd" clip-rule="evenodd" d="M79.8519 12.3336C79.8519 13.1759 80.0878 13.8578 80.5604 14.3783C81.0328 14.8993 81.6958 15.1594 82.5505 15.1594C83.405 15.1594 84.0686 14.8993 84.5406 14.3783C85.013 13.8578 85.2489 13.1759 85.2489 12.3336C85.2489 11.4915 85.013 10.8099 84.5406 10.2889C84.0686 9.76842 83.405 9.50781 82.5505 9.50781C81.6958 9.50781 81.0328 9.76842 80.5604 10.2889C80.0878 10.8099 79.8519 11.4915 79.8519 12.3336ZM76.4785 12.3331C76.4785 11.445 76.6358 10.6411 76.9511 9.92079C77.2657 9.20123 77.6965 8.5846 78.2438 8.07141C78.7911 7.55848 79.4359 7.1638 80.1781 6.88812C80.9203 6.61245 81.7106 6.47461 82.5504 6.47461C83.3899 6.47461 84.1809 6.61245 84.9226 6.88812C85.6648 7.1638 86.3097 7.55848 86.8567 8.07141C87.404 8.5846 87.8351 9.20123 88.1496 9.92079C88.4647 10.6411 88.6222 11.445 88.6222 12.3331C88.6222 13.2216 88.4647 14.0258 88.1496 14.7454C87.8351 15.4657 87.404 16.0818 86.8567 16.595C86.3097 17.1082 85.6648 17.5024 84.9226 17.778C84.1809 18.0537 83.3899 18.1915 82.5504 18.1915C81.7106 18.1915 80.9203 18.0537 80.1781 17.778C79.4359 17.5024 78.7911 17.1082 78.2438 16.595C77.6965 16.0818 77.2657 15.4657 76.9511 14.7454C76.6358 14.0258 76.4785 13.2216 76.4785 12.3331Z" fill="#FFD01A"/>
<path fill-rule="evenodd" clip-rule="evenodd" d="M3.37329 12.3336C3.37329 13.1759 3.60921 13.8578 4.08155 14.3783C4.55414 14.8993 5.21718 15.1594 6.07167 15.1594C6.9264 15.1594 7.58994 14.8993 8.06203 14.3783C8.53437 13.8578 8.7703 13.1759 8.7703 12.3336C8.7703 11.4915 8.53437 10.8099 8.06203 10.2889C7.58994 9.76842 6.9264 9.50781 6.07167 9.50781C5.21718 9.50781 4.55414 9.76842 4.08155 10.2889C3.60921 10.8099 3.37329 11.4915 3.37329 12.3336ZM0 12.3331C0 11.445 0.157283 10.6411 0.472339 9.92079C0.78715 9.20123 1.21796 8.5846 1.76525 8.07141C2.31255 7.55848 2.95716 7.1638 3.69934 6.88812C4.44151 6.61245 5.23211 6.47461 6.0716 6.47461C6.91134 6.47461 7.70243 6.61245 8.44411 6.88812C9.18629 7.1638 9.8309 7.55848 10.3782 8.07141C10.9255 8.5846 11.3563 9.20123 11.6711 9.92079C11.9862 10.6411 12.1434 11.445 12.1434 12.3331C12.1434 13.2216 11.9862 14.0258 11.6711 14.7454C11.3563 15.4657 10.9255 16.0818 10.3782 16.595C9.8309 17.1082 9.18629 17.5024 8.44411 17.778C7.70243 18.0537 6.91134 18.1915 6.0716 18.1915C5.23211 18.1915 4.44151 18.0537 3.69934 17.778C2.95716 17.5024 2.31255 17.1082 1.76525 16.595C1.21796 16.0818 0.78715 15.4657 0.472339 14.7454C0.157283 14.0258 0 13.2216 0 12.3331Z" fill="#FFD01A"/>
</svg>
