<svg width="156" height="35" viewBox="0 0 156 35" fill="none" xmlns="http://www.w3.org/2000/svg">
<mask id="mask0_1819_16780" style="mask-type:luminance" maskUnits="userSpaceOnUse" x="0" y="0" width="147" height="35">
<path fill-rule="evenodd" clip-rule="evenodd" d="M0.5 34.7219H146.5V0H0.5V34.7219Z" fill="white"/>
</mask>
<g mask="url(#mask0_1819_16780)">
<path fill-rule="evenodd" clip-rule="evenodd" d="M5.57703 17.3624C5.57703 18.6038 5.9325 19.6081 6.64344 20.3749C7.35475 21.1424 8.35237 21.5256 9.63887 21.5256C10.9254 21.5256 11.9237 21.1424 12.6343 20.3749C13.3456 19.6081 13.7007 18.6038 13.7007 17.3624C13.7007 16.1218 13.3456 15.1175 12.6343 14.35C11.9237 13.5832 10.9254 13.1992 9.63887 13.1992C8.35237 13.1992 7.35475 13.5832 6.64344 14.35C5.9325 15.1175 5.57703 16.1218 5.57703 17.3624ZM0.499756 17.3617C0.499756 16.0533 0.73686 14.8689 1.21107 13.8077C1.68491 12.7476 2.33297 11.8391 3.15673 11.083C3.98086 10.3273 4.9511 9.74584 6.06819 9.33969C7.18528 8.93391 8.37487 8.73047 9.63881 8.73047C10.9024 8.73047 12.0931 8.93391 13.2098 9.33969C14.3265 9.74584 15.2971 10.3273 16.1209 11.083C16.9443 11.8391 17.5931 12.7476 18.0669 13.8077C18.5411 14.8689 18.7779 16.0533 18.7779 17.3617C18.7779 18.6711 18.5411 19.8555 18.0669 20.9156C17.5931 21.9769 16.9443 22.885 16.1209 23.6407C15.2971 24.3967 14.3265 24.9775 13.2098 25.3836C12.0931 25.7898 10.9024 25.9928 9.63881 25.9928C8.37487 25.9928 7.18528 25.7898 6.06819 25.3836C4.9511 24.9775 3.98086 24.3967 3.15673 23.6407C2.33297 22.885 1.68491 21.9769 1.21107 20.9156C0.73686 19.8555 0.499756 18.6711 0.499756 17.3617Z" fill="#FFD000"/>
<path fill-rule="evenodd" clip-rule="evenodd" d="M20.8729 9.13699H25.9501V11.7769H26.0175C26.5594 10.7616 27.2022 9.99996 27.9468 9.49209C28.6914 8.98422 29.6273 8.73047 30.7562 8.73047C31.0492 8.73047 31.3432 8.74231 31.6366 8.76487C31.9295 8.78706 32.2003 8.83219 32.4485 8.89988V13.5373C32.0875 13.4245 31.7316 13.3398 31.3825 13.2832C31.0322 13.2269 30.6663 13.1985 30.2824 13.1985C29.3121 13.1985 28.5442 13.3342 27.9809 13.6046C27.4164 13.8757 26.9822 14.2538 26.6777 14.7387C26.3726 15.224 26.175 15.8048 26.0851 16.4817C25.9953 17.159 25.9501 17.9036 25.9501 18.7159V25.5871H20.8729V9.13699Z" fill="#6BC3E8"/>
<path fill-rule="evenodd" clip-rule="evenodd" d="M44.6741 15.5005C44.6959 14.6435 44.4141 13.9096 43.8278 13.3004C43.2404 12.6911 42.485 12.3867 41.5596 12.3867C40.9958 12.3867 40.4991 12.477 40.0707 12.6575C39.642 12.8384 39.2751 13.0692 38.9706 13.351C38.6658 13.6336 38.4287 13.9606 38.2597 14.3327C38.0903 14.7052 37.9937 15.0944 37.9723 15.5005H44.6741ZM48.9726 22.7433C48.16 23.7816 47.1327 24.5828 45.8921 25.1465C44.6511 25.7106 43.3653 25.9928 42.0337 25.9928C40.7698 25.9928 39.5794 25.7898 38.4631 25.3836C37.3456 24.9775 36.3754 24.3964 35.552 23.6403C34.7271 22.8846 34.0794 21.9769 33.6052 20.9156C33.1318 19.8555 32.8947 18.6707 32.8947 17.3617C32.8947 16.0533 33.1318 14.8685 33.6052 13.8073C34.0794 12.7476 34.7271 11.8391 35.552 11.083C36.3754 10.3273 37.3456 9.74584 38.4631 9.33969C39.5794 8.93391 40.7698 8.73047 42.0337 8.73047C43.2067 8.73047 44.2731 8.93391 45.2326 9.33969C46.1917 9.74584 47.0037 10.3273 47.6695 11.083C48.3345 11.8391 48.8483 12.7476 49.2094 13.8073C49.5704 14.8685 49.7512 16.0533 49.7512 17.3617V18.9526H37.9722C38.1749 19.9232 38.6147 20.6959 39.2917 21.2711C39.9686 21.8463 40.8034 22.1344 41.797 22.1344C42.6318 22.1344 43.3369 21.948 43.912 21.5759C44.4872 21.2034 44.9896 20.7244 45.4186 20.1374L48.9726 22.7433Z" fill="#6BC3E8"/>
<path fill-rule="evenodd" clip-rule="evenodd" d="M60.1899 18.377C59.8056 18.377 59.3262 18.394 58.751 18.4276C58.1758 18.4617 57.6225 18.5578 57.0928 18.7154C56.5616 18.8737 56.1111 19.1105 55.739 19.4264C55.3665 19.7422 55.1804 20.1824 55.1804 20.7461C55.1804 21.3557 55.4397 21.8074 55.9591 22.1C56.4777 22.394 57.0196 22.5401 57.5829 22.5401C58.0793 22.5401 58.5594 22.4728 59.0222 22.3374C59.4842 22.2017 59.8966 22.0105 60.2576 21.7615C60.6175 21.5137 60.9064 21.1982 61.1206 20.8142C61.3348 20.4306 61.4424 19.9797 61.4424 19.4604V18.377H60.1899ZM61.4424 23.5223H61.3747C60.8103 24.4023 60.0597 25.0341 59.1235 25.4177C58.1866 25.8009 57.1997 25.9928 56.1614 25.9928C55.3946 25.9928 54.6559 25.8856 53.9446 25.6714C53.2337 25.4572 52.6078 25.1354 52.0666 24.7067C51.5247 24.2784 51.0953 23.7479 50.7801 23.1158C50.4635 22.4844 50.3055 21.7509 50.3055 20.9156C50.3055 19.968 50.4809 19.1671 50.8308 18.5124C51.1803 17.8584 51.6538 17.3169 52.2523 16.8882C52.8501 16.4595 53.5329 16.1266 54.3001 15.8891C55.0669 15.6524 55.8625 15.4778 56.6866 15.3646C57.5097 15.2518 58.3334 15.1844 59.1572 15.1615C59.9809 15.1393 60.7426 15.1275 61.4424 15.1275C61.4424 14.2257 61.1206 13.5088 60.4774 12.9784C59.8341 12.4487 59.0729 12.1831 58.1925 12.1831C57.358 12.1831 56.596 12.3581 55.9084 12.7076C55.2193 13.0575 54.6049 13.5369 54.0633 14.1461L51.3553 11.3708C52.3034 10.4908 53.4086 9.83054 54.6726 9.39074C55.9358 8.95056 57.2444 8.73047 58.5983 8.73047C60.0886 8.73047 61.3122 8.91653 62.2717 9.28901C63.2305 9.66113 63.9977 10.2089 64.5729 10.9306C65.1488 11.653 65.549 12.5382 65.775 13.588C65.9999 14.637 66.1135 15.8499 66.1135 17.2266V25.5867H61.4424V23.5223Z" fill="#6BC3E8"/>
<path fill-rule="evenodd" clip-rule="evenodd" d="M67.9402 9.13699H72.814V11.3708H72.8813C73.0392 11.0553 73.2652 10.7394 73.5582 10.4231C73.8519 10.1072 74.2022 9.82537 74.608 9.57679C75.0141 9.32859 75.4768 9.12552 75.9962 8.96757C76.5148 8.81 77.0792 8.73047 77.6885 8.73047C78.8392 8.73047 79.8598 8.96757 80.7516 9.44178C81.6427 9.91525 82.3137 10.6602 82.7657 11.6756C83.352 10.6151 84.0629 9.8594 84.8978 9.40738C85.7323 8.95648 86.7591 8.73047 87.9779 8.73047C89.0835 8.73047 90.0142 8.9169 90.771 9.28901C91.5263 9.66113 92.1248 10.169 92.5639 10.8123C93.0044 11.4555 93.3203 12.2116 93.5119 13.0805C93.7035 13.949 93.7997 14.8796 93.7997 15.8728V25.5871H88.7225V16.0078C88.7225 15.241 88.559 14.5808 88.232 14.0278C87.9047 13.4751 87.3236 13.1985 86.4891 13.1985C85.9017 13.1985 85.4108 13.295 85.0165 13.4862C84.6218 13.6782 84.3056 13.9431 84.0688 14.2815C83.8321 14.62 83.6627 15.0154 83.561 15.4663C83.4592 15.9183 83.4086 16.3922 83.4086 16.8882V25.5871H78.3313V16.8882C78.3313 16.5952 78.3199 16.2338 78.2973 15.8048C78.2744 15.3768 78.1963 14.9703 78.0602 14.5863C77.9252 14.2027 77.7051 13.8757 77.4007 13.6046C77.0959 13.3342 76.6498 13.1985 76.0639 13.1985C75.4084 13.1985 74.8791 13.3172 74.4729 13.5539C74.0664 13.791 73.7561 14.1073 73.5419 14.5016C73.3274 14.897 73.1868 15.3424 73.1191 15.8388C73.0507 16.3352 73.0174 16.8542 73.0174 17.3961V25.5871H67.9402V9.13699Z" fill="#6BC3E8"/>
<mask id="mask1_1819_16780" style="mask-type:luminance" maskUnits="userSpaceOnUse" x="133" y="4" width="14" height="22">
<path fill-rule="evenodd" clip-rule="evenodd" d="M133.706 4.26172H146.5V25.9921H133.706V4.26172Z" fill="white"/>
</mask>
<g mask="url(#mask1_1819_16780)">
<path fill-rule="evenodd" clip-rule="evenodd" d="M146.5 13.1977H142.032V18.6811C142.032 19.1327 142.055 19.5444 142.1 19.9165C142.145 20.2886 142.246 20.6104 142.405 20.8808C142.562 21.152 142.805 21.3606 143.132 21.5071C143.459 21.6543 143.894 21.7272 144.436 21.7272C144.706 21.7272 145.061 21.6991 145.502 21.6428C145.942 21.5866 146.275 21.4568 146.5 21.2533V25.4842C145.936 25.6877 145.35 25.8227 144.74 25.8907C144.13 25.9584 143.533 25.9921 142.946 25.9921C142.088 25.9921 141.298 25.9015 140.576 25.7213C139.854 25.5408 139.223 25.2534 138.681 24.858C138.14 24.464 137.717 23.9503 137.412 23.3185C137.107 22.6867 136.955 21.9195 136.955 21.0166V13.1977H133.706V9.13623H136.955V4.26172H142.032V9.13623H146.5V13.1977Z" fill="#6BC3E8"/>
</g>
<path fill-rule="evenodd" clip-rule="evenodd" d="M13.7322 17.4758H18.7776V0H13.7322V17.4758Z" fill="#6BC3E8"/>
<path fill-rule="evenodd" clip-rule="evenodd" d="M96.2438 34.7219H101.29V17.2461H96.2438V34.7219Z" fill="#6BC3E8"/>
<path fill-rule="evenodd" clip-rule="evenodd" d="M109.445 17.3628C109.445 16.1214 109.09 15.1168 108.378 14.35C107.667 13.5828 106.669 13.1992 105.383 13.1992C104.097 13.1992 103.098 13.5828 102.387 14.35C101.677 15.1168 101.321 16.1214 101.321 17.3628C101.321 18.6034 101.677 19.6073 102.387 20.3749C103.098 21.142 104.097 21.5256 105.383 21.5256C106.669 21.5256 107.667 21.142 108.378 20.3749C109.09 19.6073 109.445 18.6034 109.445 17.3628ZM114.522 17.3617C114.522 18.67 114.285 19.8544 113.811 20.9156C113.337 21.9758 112.688 22.8842 111.865 23.6403C111.041 24.396 110.07 24.9775 108.954 25.3836C107.836 25.7894 106.647 25.9928 105.383 25.9928C104.119 25.9928 102.928 25.7894 101.812 25.3836C100.695 24.9775 99.7246 24.396 98.9009 23.6403C98.0771 22.8842 97.4287 21.9758 96.9548 20.9156C96.4806 19.8544 96.2435 18.67 96.2435 17.3617C96.2435 16.0522 96.4806 14.8678 96.9548 13.8077C97.4287 12.7464 98.0771 11.8383 98.9009 11.0826C99.7246 10.3266 100.695 9.74584 101.812 9.33969C102.928 8.93354 104.119 8.73047 105.383 8.73047C106.647 8.73047 107.836 8.93354 108.954 9.33969C110.07 9.74584 111.041 10.3266 111.865 11.0826C112.688 11.8383 113.337 12.7464 113.811 13.8077C114.285 14.8678 114.522 16.0522 114.522 17.3617Z" fill="#FFD000"/>
<path fill-rule="evenodd" clip-rule="evenodd" d="M120.69 17.3624C120.69 18.6038 121.045 19.6081 121.756 20.3749C122.467 21.1424 123.465 21.5256 124.751 21.5256C126.038 21.5256 127.037 21.1424 127.747 20.3749C128.458 19.6081 128.813 18.6038 128.813 17.3624C128.813 16.1218 128.458 15.1175 127.747 14.35C127.037 13.5832 126.038 13.1992 124.751 13.1992C123.465 13.1992 122.467 13.5832 121.756 14.35C121.045 15.1175 120.69 16.1218 120.69 17.3624ZM115.612 17.3617C115.612 16.0533 115.849 14.8689 116.323 13.8077C116.797 12.7476 117.445 11.8391 118.27 11.083C119.093 10.3273 120.064 9.74584 121.181 9.33969C122.298 8.93391 123.487 8.73047 124.751 8.73047C126.015 8.73047 127.206 8.93391 128.322 9.33969C129.439 9.74584 130.41 10.3273 131.233 11.083C132.057 11.8391 132.706 12.7476 133.179 13.8077C133.654 14.8689 133.89 16.0533 133.89 17.3617C133.89 18.6711 133.654 19.8555 133.179 20.9156C132.706 21.9769 132.057 22.885 131.233 23.6407C130.41 24.3967 129.439 24.9775 128.322 25.3836C127.206 25.7898 126.015 25.9928 124.751 25.9928C123.487 25.9928 122.298 25.7898 121.181 25.3836C120.064 24.9775 119.093 24.3967 118.27 23.6407C117.445 22.885 116.797 21.9769 116.323 20.9156C115.849 19.8555 115.612 18.6711 115.612 17.3617Z" fill="#FFD000"/>
</g>
</svg>
