<svg width="210" height="26" viewBox="0 0 210 26" fill="none" xmlns="http://www.w3.org/2000/svg">
<mask id="path-1-inside-1_1848_41172" fill="white">
<path fill-rule="evenodd" clip-rule="evenodd" d="M13 0C5.8203 0 0 5.8203 0 13C0 20.1797 5.8203 26 13 26H197C204.18 26 210 20.1797 210 13C210 5.8203 204.18 0 197 0H13ZM12.5 8C9.46243 8 7 10.4624 7 13.5C7 16.5376 9.46243 19 12.5 19H197.5C200.538 19 203 16.5376 203 13.5C203 10.4624 200.538 8 197.5 8H12.5Z"/>
</mask>
<path fill-rule="evenodd" clip-rule="evenodd" d="M13 0C5.8203 0 0 5.8203 0 13C0 20.1797 5.8203 26 13 26H197C204.18 26 210 20.1797 210 13C210 5.8203 204.18 0 197 0H13ZM12.5 8C9.46243 8 7 10.4624 7 13.5C7 16.5376 9.46243 19 12.5 19H197.5C200.538 19 203 16.5376 203 13.5C203 10.4624 200.538 8 197.5 8H12.5Z" fill="url(#paint0_linear_1848_41172)"/>
<path d="M1 13C1 6.37258 6.37258 1 13 1V-1C5.26801 -1 -1 5.26801 -1 13H1ZM13 25C6.37259 25 1 19.6274 1 13H-1C-1 20.732 5.26802 27 13 27V25ZM197 25H13V27H197V25ZM209 13C209 19.6274 203.627 25 197 25V27C204.732 27 211 20.732 211 13H209ZM197 1C203.627 1 209 6.37258 209 13H211C211 5.26801 204.732 -1 197 -1V1ZM13 1H197V-1H13V1ZM8 13.5C8 11.0147 10.0147 9 12.5 9V7C8.91015 7 6 9.91015 6 13.5H8ZM12.5 18C10.0147 18 8 15.9853 8 13.5H6C6 17.0898 8.91015 20 12.5 20V18ZM197.5 18H12.5V20H197.5V18ZM202 13.5C202 15.9853 199.985 18 197.5 18V20C201.09 20 204 17.0898 204 13.5H202ZM197.5 9C199.985 9 202 11.0147 202 13.5H204C204 9.91015 201.09 7 197.5 7V9ZM12.5 9H197.5V7H12.5V9Z" fill="url(#paint1_linear_1848_41172)" mask="url(#path-1-inside-1_1848_41172)"/>
<defs>
<linearGradient id="paint0_linear_1848_41172" x1="0" y1="13" x2="215.369" y2="13.2396" gradientUnits="userSpaceOnUse">
<stop stop-color="white"/>
<stop offset="1" stop-color="#EEEEEE"/>
</linearGradient>
<linearGradient id="paint1_linear_1848_41172" x1="0" y1="13" x2="210" y2="13" gradientUnits="userSpaceOnUse">
<stop stop-color="#F3F0F0"/>
<stop offset="1" stop-color="#E1DFDF"/>
</linearGradient>
</defs>
</svg>
